<svg
   version="1.1"
   id="svg2"
   width="340.15732"
   height="113.38587"
   viewBox="0 0 340.15732 113.38587"
   sodipodi:docname="oggetto-logo_mono-flat-hor-rus.ai"
   xmlns:inkscape="http://www.inkscape.org/namespaces/inkscape"
   xmlns:sodipodi="http://sodipodi.sourceforge.net/DTD/sodipodi-0.dtd"
   xmlns="http://www.w3.org/2000/svg"
   xmlns:svg="http://www.w3.org/2000/svg">
  <defs
     id="defs6">
    <clipPath
       clipPathUnits="userSpaceOnUse"
       id="clipPath16">
      <path
         d="M 0,85.039 H 255.118 V 0 H 0 Z"
         id="path14" />
    </clipPath>
  </defs>
  <sodipodi:namedview
     id="namedview4"
     pagecolor="#ffffff"
     bordercolor="#000000"
     borderopacity="0.25"
     inkscape:showpageshadow="2"
     inkscape:pageopacity="0.0"
     inkscape:pagecheckerboard="0"
     inkscape:deskcolor="#d1d1d1" />
  <g
     id="g8"
     inkscape:groupmode="layer"
     inkscape:label="oggetto-logo_mono-flat-hor-rus"
     transform="matrix(1.3333333,0,0,-1.3333333,0,113.38587)">
    <g
       id="g10">
      <g
         id="g12"
         clip-path="url(#clipPath16)">
        <g
           id="g18"
           transform="translate(229.466,36.7693)">
          <path
             d="m 0,0 c -3.607,0 -6.038,2.587 -6.038,6.312 0,3.685 2.431,6.272 6.038,6.272 3.568,0 5.999,-2.587 5.999,-6.272 C 5.999,2.587 3.568,0 0,0 m 0,16.779 c -5.998,0 -10.546,-4.469 -10.546,-10.467 0,-6.038 4.548,-10.507 10.546,-10.507 5.959,0 10.546,4.469 10.546,10.507 0,5.998 -4.587,10.467 -10.546,10.467"
             style="fill:#231f20;fill-opacity:1;fill-rule:nonzero;stroke:none"
             id="path20" />
        </g>
        <g
           id="g22"
           transform="translate(89.1925,36.7693)">
          <path
             d="m 0,0 c -3.607,0 -6.038,2.587 -6.038,6.312 0,3.685 2.431,6.272 6.038,6.272 3.568,0 5.999,-2.587 5.999,-6.272 C 5.999,2.587 3.568,0 0,0 m 0,16.779 c -5.998,0 -10.546,-4.469 -10.546,-10.467 0,-6.038 4.548,-10.507 10.546,-10.507 5.959,0 10.546,4.469 10.546,10.507 0,5.998 -4.587,10.467 -10.546,10.467"
             style="fill:#231f20;fill-opacity:1;fill-rule:nonzero;stroke:none"
             id="path24" />
        </g>
        <g
           id="g26"
           transform="translate(113.1071,36.7693)">
          <path
             d="m 0,0 c -3.606,0 -6.077,2.509 -6.077,6.233 0,3.725 2.471,6.312 6.077,6.312 3.686,0 5.999,-2.587 5.999,-6.312 C 5.999,2.509 3.607,0 0,0 m -1.372,24.071 c -1.882,0 -3.803,-0.274 -5.332,-0.549 -0.548,-0.078 -0.823,-0.274 -0.823,-0.98 v -2.705 c 0,-0.353 0.157,-0.744 0.667,-0.627 1.489,0.352 2.979,0.706 5.449,0.706 4.077,0 6.39,-2.235 7.253,-5.999 C 4.705,15.563 2.94,16.583 0,16.583 c -5.567,0 -10.585,-3.528 -10.585,-10.35 0,-6.037 4.587,-10.428 10.585,-10.428 7.41,0 10.664,5.293 10.664,13.369 0,8.271 -3.137,14.897 -12.036,14.897"
             style="fill:#231f20;fill-opacity:1;fill-rule:nonzero;stroke:none"
             id="path28" />
        </g>
        <g
           id="g30"
           transform="translate(216.9596,52.8035)">
          <path
             d="m 0,0 h -16.113 c -0.431,0 -0.588,-0.156 -0.588,-0.588 v -2.744 c 0,-0.432 0.157,-0.588 0.588,-0.588 h 5.763 v -14.976 c 0,-0.431 0.157,-0.588 0.588,-0.588 h 3.333 c 0.431,0 0.588,0.196 0.588,0.588 V -3.92 H 0 c 0.432,0 0.588,0.156 0.588,0.588 v 2.744 C 0.588,-0.156 0.432,0 0,0"
             style="fill:#231f20;fill-opacity:1;fill-rule:nonzero;stroke:none"
             id="path32" />
        </g>
        <g
           id="g34"
           transform="translate(163.2858,45.1199)">
          <path
             d="M 0,0 C 0.68,3.309 3.078,4.704 5.923,4.704 8.942,4.704 11.059,2.94 11.255,0 Z m 5.923,8.429 c -6.312,0 -10.546,-4.509 -10.546,-10.468 0,-7.096 5.175,-10.546 11.526,-10.546 2.235,0 4.117,0.196 5.175,0.51 0.51,0.157 0.706,0.274 0.706,0.862 v 2.744 c 0,0.432 -0.196,0.745 -0.784,0.628 -1.529,-0.313 -3.254,-0.588 -4.862,-0.588 -3.994,0 -6.628,1.452 -7.209,4.862 h 11.836 c 2.94,0 3.92,0.823 3.92,3.723 0,4.783 -3.92,8.273 -9.762,8.273"
             style="fill:#231f20;fill-opacity:1;fill-rule:nonzero;stroke:none"
             id="path36" />
        </g>
        <g
           id="g38"
           transform="translate(197.6711,52.8035)">
          <path
             d="m 0,0 h -16.113 c -0.431,0 -0.588,-0.156 -0.588,-0.588 v -2.744 c 0,-0.432 0.157,-0.588 0.588,-0.588 h 5.763 v -14.976 c 0,-0.431 0.157,-0.588 0.588,-0.588 h 3.333 c 0.431,0 0.588,0.196 0.588,0.588 V -3.92 H 0 c 0.432,0 0.588,0.156 0.588,0.588 v 2.744 C 0.588,-0.156 0.432,0 0,0"
             style="fill:#231f20;fill-opacity:1;fill-rule:nonzero;stroke:none"
             id="path40" />
        </g>
        <g
           id="g42"
           transform="translate(156.0753,37.0047)">
          <path
             d="m 0,0 c -4.43,0 -4.626,3.371 -7.174,6.233 -0.059,0.067 -0.12,0.132 -0.183,0.197 2.055,4.881 3.843,5.998 6.142,5.998 h 0.666 c 0.353,0 0.47,0.117 0.47,0.391 v 2.666 c 0,0.275 0,0.549 -0.431,0.627 -0.196,0.04 -0.784,0.04 -1.176,0.04 -4.015,0 -5.895,-1.135 -9.303,-8.211 -0.379,0.037 -0.792,0.056 -1.243,0.056 h -0.078 v 7.214 c 0,0.432 -0.157,0.588 -0.588,0.588 h -3.137 c -0.431,0 -0.588,-0.156 -0.588,-0.588 V 7.997 h -0.078 c -0.451,0 -0.864,-0.019 -1.243,-0.056 -3.409,7.076 -5.287,8.211 -9.303,8.211 -0.392,0 -0.784,0 -1.176,-0.04 -0.353,-0.039 -0.431,-0.234 -0.431,-0.627 v -2.588 c 0,-0.313 0.117,-0.469 0.47,-0.469 h 0.667 c 2.298,0 4.087,-1.117 6.141,-5.998 C -21.639,6.365 -21.7,6.3 -21.758,6.233 -24.307,3.371 -24.581,0 -28.776,0 c -0.353,0 -0.549,-0.157 -0.549,-0.549 V -3.45 c 0,-0.432 0.196,-0.588 0.588,-0.588 5.92,0 6.861,3.684 9.958,7.527 0.51,0.627 1.098,0.98 2.039,0.98 h 0.117 v -7.567 c 0,-0.43 0.157,-0.588 0.588,-0.588 h 3.137 c 0.431,0 0.588,0.158 0.588,0.588 v 7.567 h 0.118 c 0.941,0 1.528,-0.353 2.038,-0.98 3.097,-3.843 4.195,-7.527 10.115,-7.527 0.431,0 0.431,0.274 0.431,0.51 v 3.096 C 0.392,-0.079 0.313,0 0,0"
             style="fill:#231f20;fill-opacity:1;fill-rule:nonzero;stroke:none"
             id="path44" />
        </g>
        <g
           id="g46"
           transform="translate(63.4899,45.493)">
          <path
             d="m 0,0 c -0.011,0.082 -0.033,0.163 -0.045,0.245 -0.007,0.033 -0.011,0.067 -0.018,0.101 -0.77,5.015 -3.291,9.668 -6.939,13.041 -3.725,3.483 -8.669,5.501 -13.646,5.794 -4.987,0.327 -10.012,-1.195 -13.953,-4.099 -3.478,-2.535 -6.137,-6.111 -7.545,-10.101 -0.033,-0.098 0.082,-0.111 0.118,-0.025 1.625,3.85 4.412,7.152 7.857,9.375 3.919,2.555 8.684,3.684 13.237,3.139 4.54,-0.509 8.869,-2.554 11.975,-5.796 2.054,-2.11 3.62,-4.664 4.559,-7.408 0.048,-0.14 -0.135,-0.205 -0.192,-0.07 -1.097,2.575 -2.721,4.928 -4.75,6.786 -3.174,2.933 -7.365,4.623 -11.571,4.855 -4.214,0.259 -8.446,-1.043 -11.756,-3.499 -2.862,-2.101 -5.053,-5.04 -6.243,-8.31 -0.036,-0.097 0.069,-0.15 0.113,-0.057 1.4,3.142 3.726,5.821 6.568,7.622 3.292,2.107 7.271,3.014 11.055,2.532 3.772,-0.457 7.351,-2.177 9.904,-4.881 1.584,-1.649 2.841,-3.615 3.635,-5.725 0.058,-0.158 -0.117,-0.238 -0.184,-0.106 -0.924,2.147 -2.311,4.084 -4.049,5.614 -2.818,2.504 -6.552,3.966 -10.287,3.929 -3.725,0.016 -7.42,-1.361 -10.183,-3.793 -2.789,-2.405 -4.602,-5.854 -5.057,-9.453 -0.479,-3.59 0.368,-7.338 2.399,-10.295 1.996,-2.974 5.072,-5.161 8.489,-6.057 3.412,-0.932 7.117,-0.511 10.231,1.037 2.788,1.393 5.067,3.696 6.444,6.442 0.024,0.046 -0.011,0.072 -0.038,0.026 -1.482,-2.673 -3.819,-4.83 -6.569,-6.07 -3.074,-1.375 -6.621,-1.615 -9.788,-0.617 -3.172,0.964 -5.93,3.107 -7.647,5.881 -1.754,2.76 -2.357,6.152 -1.83,9.31 0.507,3.166 2.209,6.096 4.673,8.075 2.445,2.004 5.589,3.042 8.692,2.937 3.11,-0.092 6.107,-1.379 8.321,-3.473 2.217,-2.086 3.661,-4.959 3.909,-7.948 0.009,-0.059 0.019,-0.178 0.054,-0.321 0.278,-2.607 2.49,-4.615 5.157,-4.552 2.812,0.064 5.039,2.397 4.973,5.209 C 0.07,-0.556 0.035,-0.414 0.019,-0.268 0.016,-0.148 0.009,-0.05 0,0 m 2.603,-4.018 c -0.261,-6.237 -2.986,-12.358 -7.482,-16.766 -4.453,-4.45 -10.664,-7.148 -17.014,-7.302 -6.336,-0.235 -12.768,2 -17.603,6.193 -4.859,4.151 -8.129,10.192 -8.839,16.617 -0.009,0.06 -0.015,0.185 -0.017,0.334 -0.003,0.046 -0.019,0.087 -0.022,0.132 -0.178,2.808 1.954,5.228 4.761,5.406 2.807,0.177 5.227,-1.953 5.405,-4.76 0.005,-0.08 -0.01,-0.155 -0.009,-0.233 0.004,-0.01 0.018,-0.029 0.02,-0.037 0.251,-3.455 1.711,-6.843 4.09,-9.498 2.403,-2.607 5.675,-4.556 9.295,-5.15 3.598,-0.677 7.458,-0.11 10.798,1.609 3.064,1.586 5.661,4.141 7.339,7.248 0.023,0.044 0.092,0.032 0.065,-0.024 -1.455,-3.256 -3.917,-6.103 -7.033,-8.001 -3.382,-2.062 -7.504,-3.001 -11.53,-2.52 -4.046,0.398 -7.931,2.299 -10.908,5.169 -1.972,1.893 -3.49,4.27 -4.478,6.857 -0.048,0.111 -0.226,0.054 -0.188,-0.085 0.867,-2.855 2.453,-5.533 4.539,-7.743 3.038,-3.211 7.233,-5.311 11.696,-5.946 4.47,-0.592 9.194,0.319 13.134,2.729 3.663,2.197 6.652,5.585 8.384,9.586 0.024,0.052 0.08,0.04 0.058,-0.025 -1.499,-4.131 -4.338,-7.805 -8.037,-10.327 -3.971,-2.76 -8.962,-4.033 -13.861,-3.659 -4.907,0.4 -9.696,2.513 -13.352,5.949 -2.519,2.398 -4.432,5.414 -5.609,8.726 -0.044,0.136 -0.233,0.07 -0.2,-0.042 1.223,-3.937 3.558,-7.499 6.692,-10.232 4.223,-3.748 9.892,-5.813 15.588,-5.677 5.691,0.077 11.352,2.381 15.489,6.389 4.168,3.968 6.778,9.55 7.117,15.345 0.403,5.789 -1.44,11.729 -5.136,16.288 -3.655,4.588 -9.11,7.725 -14.962,8.572 -5.839,0.896 -12.043,-0.435 -16.981,-3.805 -4.413,-2.976 -7.761,-7.464 -9.44,-12.559 -0.031,-0.096 -0.133,-0.08 -0.112,-0.006 1.565,5.168 4.897,9.8 9.341,12.945 4.962,3.542 11.313,5.076 17.394,4.264 C -12.908,21.19 -7.131,18.02 -3.164,13.259 0.834,8.52 2.934,2.213 2.603,-4.018"
             style="fill:#231f20;fill-opacity:1;fill-rule:nonzero;stroke:none"
             id="path48" />
        </g>
      </g>
    </g>
  </g>
</svg>
